<svg xmlns="http://www.w3.org/2000/svg"  viewBox="0 0 100 100" width="200px" height="200px" clip-rule="evenodd" baseProfile="basic"><path fill="#ee3e54" d="M12.725,26.858c-1.105,0-2,0.895-2,2s0.895,2,2,2s2-0.895,2-2S13.83,26.858,12.725,26.858z"/><path fill="#f1bc19" d="M76.725,11.858c-0.551,0-1,0.449-1,1s0.449,1,1,1s1-0.449,1-1S77.276,11.858,76.725,11.858z"/><path fill="#fce0a2" d="M49.725,12.608c-20.434,0-37,16.566-37,37s16.566,37,37,37s37-16.566,37-37 S70.159,12.608,49.725,12.608z"/><path fill="#f1bc19" d="M82.725,10.858c-2.211,0-4,1.789-4,4s1.789,4,4,4s4-1.789,4-4S84.936,10.858,82.725,10.858z"/><path fill="#ee3e54" d="M86.725,21.858c-1.105,0-2,0.895-2,2s0.895,2,2,2s2-0.895,2-2S87.83,21.858,86.725,21.858z"/><path fill="#fbcd59" d="M80.725,73.858c-1.105,0-2,0.895-2,2s0.895,2,2,2s2-0.895,2-2S81.83,73.858,80.725,73.858z M14.725,58.858c-2.211,0-4,1.789-4,4s1.789,4,4,4s4-1.789,4-4S16.936,58.858,14.725,58.858z"/><path fill="#ee3e54" d="M24.725,84.858c-1.105,0-2,0.895-2,2s0.895,2,2,2s2-0.895,2-2S25.83,84.858,24.725,84.858z"/><path fill="#fff" d="M18.225,40.858c-1.379,0-2.5,1.121-2.5,2.5s1.121,2.5,2.5,2.5s2.5-1.121,2.5-2.5 S19.604,40.858,18.225,40.858z"/><path fill="#f1bc19" d="M20.725,64.858c-0.551,0-1,0.449-1,1s0.449,1,1,1s1-0.449,1-1S21.276,64.858,20.725,64.858z"/><path fill="#fff" d="M79.725,31.858c-0.551,0-1,0.449-1,1s0.449,1,1,1s1-0.449,1-1S80.276,31.858,79.725,31.858z"/><g><path fill="#1ebdf4" fill-rule="evenodd" d="M64.3,72.3H35.7c-4.418,0-8-3.582-8-8V35.7 c0-4.418,3.582-8,8-8h28.6c4.418,0,8,3.582,8,8v28.6C72.3,68.718,68.718,72.3,64.3,72.3z" clip-rule="evenodd"/><path fill="#472b29" d="M64.3,73H35.7c-4.797,0-8.7-3.903-8.7-8.7V35.7c0-4.797,3.903-8.7,8.7-8.7h28.6 c4.797,0,8.7,3.903,8.7,8.7v28.6C73,69.097,69.097,73,64.3,73z M35.7,28.4c-4.025,0-7.3,3.274-7.3,7.3v28.6 c0,4.025,3.274,7.3,7.3,7.3h28.6c4.025,0,7.3-3.274,7.3-7.3V35.7c0-4.025-3.274-7.3-7.3-7.3H35.7z"/><path fill="#472b29" d="M62.75,69h-25.5C33.804,69,31,66.196,31,62.75v-8.5c0-0.138,0.112-0.25,0.25-0.25 s0.25,0.112,0.25,0.25v8.5c0,3.171,2.58,5.75,5.75,5.75h25.5c3.17,0,5.75-2.579,5.75-5.75v-25.5c0-3.171-2.58-5.75-5.75-5.75h-7.5 c-0.138,0-0.25-0.112-0.25-0.25S55.112,31,55.25,31h7.5c3.446,0,6.25,2.804,6.25,6.25v25.5C69,66.196,66.196,69,62.75,69z"/><path fill="#472b29" d="M31.25,53C31.112,53,31,52.888,31,52.75v-2.5c0-0.138,0.112-0.25,0.25-0.25s0.25,0.112,0.25,0.25 v2.5C31.5,52.888,31.388,53,31.25,53z"/><path fill="#472b29" d="M46.75,31.5h-2.5c-0.138,0-0.25-0.112-0.25-0.25S44.112,31,44.25,31h2.5 c0.138,0,0.25,0.112,0.25,0.25S46.888,31.5,46.75,31.5z"/><path fill="#472b29" d="M52.75,31.5h-3.5c-0.138,0-0.25-0.112-0.25-0.25S49.112,31,49.25,31h3.5 c0.138,0,0.25,0.112,0.25,0.25S52.888,31.5,52.75,31.5z"/><path fill="#fff" fill-rule="evenodd" d="M56.067,59.63c-2.033,0.02-3.441-0.426-4.59-1.51 c-0.354-0.335-0.543-0.113-0.787,0.06c-1.88,1.335-3.954,1.788-6.194,1.25c-2.976-0.716-4.862-3.768-4.358-6.89 c0.283-1.747,0.496-3.504,0.764-5.254c0.065-0.427-0.125-0.598-0.481-0.741c-1.539-0.618-3.071-1.255-4.605-1.888 c-1.125-0.464-1.519-1.239-1.221-2.408c0.155-0.607,0.292-1.22,0.49-1.814c0.306-0.916,0.771-1.128,1.64-0.771 c2.654,1.092,5.304,2.189,7.952,3.294c0.96,0.401,1.339,0.953,1.217,1.998c-0.255,2.18-0.581,4.352-0.869,6.528 c-0.074,0.554-0.248,1.105-0.17,1.666c0.205,1.476,1.759,2.21,3.147,1.494c0.879-0.453,1.394-1.18,1.532-2.161 c0.147-1.042,0.281-2.086,0.425-3.13c0.111-0.808,0.615-1.368,1.419-1.493c0.8-0.124,1.613-0.117,2.414,0.022 c0.608,0.105,1.018,0.672,0.945,1.276c-0.118,0.978-0.24,1.957-0.4,2.929c-0.244,1.483,0.273,2.529,1.416,2.782 c1.262,0.281,2.755-0.617,3.064-1.932c0.214-0.913,0.295-1.856,0.426-2.788c0.152-1.087,0.28-2.177,0.443-3.263 c0.115-0.77,0.628-1.339,1.387-1.457c0.865-0.135,1.747-0.147,2.611,0.032c0.581,0.121,0.892,0.476,0.799,1.115 c-0.307,2.106-0.576,4.217-0.916,6.318C62.964,56.641,59.403,59.629,56.067,59.63z" clip-rule="evenodd"/><path fill="#472b29" d="M46.313,60.152c-0.634,0-1.278-0.078-1.933-0.235c-3.206-0.771-5.285-4.047-4.735-7.457 c0.159-0.982,0.296-1.968,0.433-2.953c0.107-0.766,0.213-1.532,0.33-2.296c0.012-0.078,0.005-0.11,0.004-0.114 c0.002,0.001-0.022-0.025-0.178-0.088c-1.269-0.51-2.535-1.033-3.8-1.556l-0.808-0.334c-1.349-0.556-1.873-1.591-1.515-2.994 l0.104-0.413c0.119-0.482,0.24-0.965,0.396-1.435c0.128-0.385,0.359-0.924,0.88-1.162c0.514-0.236,1.06-0.064,1.424,0.086 c2.655,1.093,5.306,2.19,7.955,3.295c1.197,0.501,1.667,1.277,1.521,2.519c-0.167,1.433-0.365,2.862-0.563,4.292 c-0.104,0.748-0.208,1.496-0.307,2.244c-0.022,0.167-0.053,0.333-0.083,0.5c-0.067,0.366-0.131,0.711-0.087,1.031 c0.072,0.52,0.356,0.932,0.8,1.162c0.488,0.253,1.08,0.236,1.622-0.044c0.736-0.379,1.15-0.963,1.266-1.785 c0.083-0.592,0.163-1.183,0.242-1.774l0.183-1.354c0.144-1.045,0.831-1.762,1.837-1.919c0.855-0.132,1.722-0.125,2.576,0.023 c0.866,0.149,1.461,0.953,1.356,1.829c-0.119,0.984-0.242,1.971-0.403,2.95c-0.118,0.716-0.14,1.954,1.03,2.213 c1.029,0.235,2.228-0.528,2.469-1.558c0.15-0.641,0.232-1.292,0.318-1.981c0.032-0.254,0.063-0.508,0.099-0.762 c0.062-0.442,0.12-0.885,0.178-1.328c0.084-0.646,0.169-1.294,0.266-1.939c0.151-1.009,0.842-1.728,1.804-1.878 c0.992-0.153,1.931-0.142,2.79,0.037c0.874,0.182,1.319,0.809,1.193,1.677c-0.106,0.729-0.208,1.46-0.31,2.189 c-0.192,1.38-0.384,2.76-0.607,4.136c-0.625,3.876-4.285,7.152-7.993,7.154c-2.188-0.001-3.706-0.486-4.936-1.646 c-0.002-0.002-0.003-0.004-0.005-0.006c-0.019,0.014-0.038,0.028-0.054,0.041l-0.094,0.069 C49.512,59.63,47.949,60.152,46.313,60.152z M36.041,40c-0.053,0-0.098,0.008-0.134,0.024c-0.122,0.056-0.242,0.253-0.348,0.569 c-0.148,0.445-0.261,0.902-0.374,1.359l-0.105,0.42c-0.236,0.925,0.033,1.453,0.927,1.822l0.809,0.333 c1.263,0.522,2.525,1.044,3.792,1.553c0.229,0.093,0.927,0.373,0.789,1.28c-0.116,0.761-0.222,1.521-0.328,2.283 c-0.138,0.993-0.276,1.985-0.437,2.976c-0.468,2.896,1.281,5.675,3.981,6.324c2.047,0.493,3.996,0.099,5.787-1.172 c0.271-0.202,0.799-0.603,1.42-0.016c1.041,0.982,2.296,1.371,4.242,1.373c0.001,0,0.003,0,0.005,0 c3.19-0.001,6.465-2.951,7.007-6.314c0.221-1.368,0.413-2.74,0.604-4.113c0.102-0.732,0.204-1.465,0.311-2.196 c0.043-0.302-0.007-0.47-0.407-0.554c-0.741-0.153-1.561-0.163-2.433-0.027c-0.521,0.081-0.883,0.469-0.968,1.038 c-0.097,0.64-0.18,1.28-0.264,1.921c-0.059,0.446-0.117,0.892-0.179,1.337c-0.035,0.249-0.066,0.498-0.097,0.747 c-0.086,0.686-0.175,1.394-0.337,2.086c-0.364,1.553-2.107,2.65-3.66,2.306c-1.399-0.311-2.089-1.595-1.8-3.352 c0.158-0.966,0.279-1.937,0.396-2.907c0.042-0.348-0.193-0.666-0.534-0.726c-0.746-0.129-1.504-0.136-2.251-0.02 c-0.721,0.112-0.942,0.643-1,1.067l-0.182,1.351c-0.08,0.594-0.159,1.188-0.243,1.781c-0.16,1.135-0.782,2.012-1.798,2.534 c-0.834,0.432-1.76,0.447-2.54,0.043c-0.729-0.378-1.214-1.075-1.331-1.913c-0.067-0.479,0.015-0.922,0.094-1.35 c0.027-0.149,0.055-0.3,0.075-0.449c0.1-0.751,0.204-1.501,0.308-2.251c0.197-1.422,0.394-2.845,0.561-4.27 c0.092-0.793-0.129-1.152-0.914-1.48c-2.647-1.104-5.296-2.201-7.95-3.293C36.331,40.042,36.164,40,36.041,40z"/></g></svg>